<?xml version="1.0" encoding="utf-8"?>
<!-- Generator: Adobe Illustrator 24.0.1, SVG Export Plug-In . SVG Version: 6.00 Build 0)  -->
<svg version="1.1" id="Layer_1" xmlns="http://www.w3.org/2000/svg" xmlns:xlink="http://www.w3.org/1999/xlink" x="0px" y="0px"
	 viewBox="0 0 442.2 240.9" style="enable-background:new 0 0 442.2 240.9;" xml:space="preserve">
<style type="text/css">
	.st0{display:none;fill:#FFFFFF;}
	.st1{fill:#FFFFFF;}
	.st2{fill:#2FB56A;}
</style>
<rect width="442.2" height="240.9"/>
<g>
	<path class="st1" d="M111.1,111c24.3-10.4,36.4-36.4,40.1-61.4c3.1,1.3,0.2,36.9-19.4,61.4c-3.5,4.3-7.1,8.8-11.6,12
		c-3.5,2.5-9.7,5.5-14.1,3.5c-3.1-1.4-4.1-5.7-2.8-8.5C104.6,114.8,107.9,112.4,111.1,111"/>
	<path class="st1" d="M99.2,94.2c15-9,26.5-23.9,32-40.5c2.6-7.8,4.6-16.2,4.2-24.5c0-0.9-0.4-6.6-1.1-9.1c2.2-0.3,2.9,4.4,3.2,5.7
		c3.7,15.8,1.1,33.9-4.4,49.1c-1.6,4.4-3.6,8.8-6,12.8c-3.7,6.3-8.1,12.1-13.5,17c-4.5,4-12.3,9.9-18.8,7.6c-3.5-1.3-5.2-5-4.4-8.5
		C91.5,99.3,95.5,96.5,99.2,94.2"/>
	<path class="st1" d="M80.1,166.9c0.4-0.3,0.8-0.5,1.3-0.7c6-2.1,8.6,4.7,13.1,6.8c15.9,7.3,23.6-8.5,26.4-7.3
		c-4.7,14.9-23.4,24.5-38.9,15.8c-2.4-1.3-4.6-3.6-5.2-6.6C76.1,172,77.6,168.5,80.1,166.9"/>
	<path class="st1" d="M60.7,177.2c0.9-2.6,2.7-4.9,5.3-5.6c2.5-0.6,6.2,0.2,7.6,2.7c4.3,7.6-10.3,22.7,1.8,24.3
		c4.3,0.6,8.9-2.5,12.2-5.5c0,4.3-4.7,7.5-9.1,9.1c-4.6,1.5-10.6,1.2-14.5-2.1C57.3,194.6,57.9,184.9,60.7,177.2"/>
	<path class="st1" d="M54.5,169c1.8,0.5,3,1.9,3.7,3.6c2.1,5.3-4.3,16.2-7.2,20.8c-9.8,15.1-3.4,22-5.5,22.3c-5.1-6-5.2-20-3.4-30
		c1.1-5.8,2.9-15.4,10-16.8C52.8,168.8,53.6,168.8,54.5,169"/>
	<path class="st1" d="M37,162.1c3.8-5.4,9.2-6.4,12.2-3.3c1.8,1.9,2.6,4.3,0.5,7.2c-3.8,5.3-8.2,4.7-12.1,15.5
		c-3.5,10.5,0.5,20.2-1.8,21.9c-4.5-8.5-4.8-22.2-4.8-22.8C31,173.9,32.9,167.8,37,162.1"/>
	<path class="st1" d="M35.7,146.3c2.4-2.1,4.4-2.2,5.7-1.9c3,0.8,4.3,4.3,2.9,6.9c-1.8,3.4-5.8,5.4-8.4,8.1
		c-1.6,1.6-3.1,3.5-4.3,5.5c-0.9,1.5-1.5,3.3-1.7,5.1c-0.1,1-0.1,2.2-0.4,3.2c-0.1,0.3-0.2,0.5-0.4,0.7c0,0-0.6,0.4-0.6,0.3
		C27.2,164.5,28,153,35.7,146.3"/>
	<path class="st1" d="M45.6,124c2.9-1.1,6.1,0.6,6.4,3.7c0.4,4.3-2.8,9-6.6,10.7c-1.3,0.6-2.7,1-4.1,1.2c-1.9,0.3-3.9,0.6-5.5,1.8
		c-2.4,1.8-4.3,7.5-5.5,7.3c-0.4-0.1,1.1-6,1.3-6.5c0.7-2.1,1.6-4.1,2.7-6c2.2-3.8,5-7.4,8.3-10.3C43.4,125.1,44.5,124.4,45.6,124"
		/>
	<path class="st1" d="M54.8,101c6.7-9.9,10.6-13.9,18-20.4c1-0.9,1.2,0.3,0.9,0.9c-14.9,16.3-7.8,23.7-11.1,31.8
		c-0.9,2.9-3.8,6.8-7.3,7.3c-3.2,0.5-6-2.6-5.9-5.7C49.5,110.3,52.3,104.7,54.8,101"/>
	<path class="st1" d="M70.4,109.8c-0.9-0.2-1.7-0.7-2.2-1.3c-1.8-1.9-1.6-4.8-0.6-7c1.5-3.6,4.2-6.2,6.8-9c4-4.4,7.8-7.5,12.1-11.5
		c3.5-3.3,7.5-7.4,10.7-11.1c2.5-2.9,6.2-8.4,8.3-11.6c3.8-5.8,5.2-13,5.7-20.9c0.2-4-0.2-6.6-0.6-10.1c-0.1-0.6-0.1-1.8,0.5-1.9
		c4.8,8.2,4.9,30.4-3.6,46.9c-6.2,12.1-14.1,23.8-23.1,32.3c-2.6,2.2-5.7,4.9-9.2,5.4C73.8,110.1,71.9,110.2,70.4,109.8"/>
	<path class="st1" d="M104.4,133.6c1.5-0.9,3.2-1.4,4.9-1.8c2.1-0.5,4.2-0.7,6.3-1.2c3.8-1,7.4-2.6,10.7-4.7
		c7.5-4.7,14-11.1,18.9-18.4c3.2-4.7,5.6-10,7.3-15.5c0.8-2.5,1.4-4,2.9-4.1c-3,20-13.5,39.1-29.2,52.2c-4.7,3.9-10.3,7.5-16.5,8.1
		c-3.7,0.3-8.2-0.3-9.6-4.4c-0.9-2.6-0.3-5.9,1.5-8C102.4,134.9,103.4,134.2,104.4,133.6"/>
	<path class="st1" d="M92.2,155.4c7.6-5.8,12.7,1.1,24.9-3.6c23.3-9.1,28-26.2,31.3-24.7c-8.5,17.6-21.8,34.3-40.1,41.4
		c-5.9,2.3-14.1,3.5-17.7-2C88.2,162.8,88.4,158.3,92.2,155.4"/>
	<path class="st1" d="M53.5,161.4c4.2,5.1,10.4,5.9,16,4.5c5.3-1.4,12.3-5.3,18.1-12.5c9.1-11.4,11.8-25.8,5.1-34.3
		c-4.2-5.3-10.2-5.9-15.9-4.5c-5.6,1.4-12,4.8-18,12.4c-7.4,9.3-9.8,18.5-8.6,26.6C50.6,156.4,51.5,159,53.5,161.4"/>
</g>
<g>
	<g>
		<path class="st1" d="M227.1,49.5v42.1c0,12.7-5.1,24.6-24.6,24.6c-4.8,0-10.3-0.7-16.1-3.2l1-10.3c3.7,2,9.8,4.1,13.6,4.1
			c13.4,0,14-10.1,14-18.1h-0.2c-2.3,4-7.7,7.4-14.5,7.4c-13.8,0-19-11-19-23.5c0-11.2,5.8-24.2,19.7-24.2c6.2,0,11,2.1,14.3,7.4
			h0.2v-6.3H227.1z M215,72.3c0-8-3.1-14.5-10.1-14.5c-8.2,0-10.9,7.6-10.9,14.8c0,6.3,3.4,14.1,10.3,14.1
			C211.9,86.7,215,80.1,215,72.3z"/>
		<path class="st1" d="M237.8,49.5h10.8v10.6h0.2c0.5-4.3,5.5-11.7,12.8-11.7c1.2,0,2.4,0,3.7,0.4V61c-1.1-0.6-3.3-1-5.4-1
			c-9.9,0-9.9,12.3-9.9,19v17.1h-12.1V49.5z"/>
		<path class="st1" d="M310.6,93.5c-4.4,2.4-9.5,3.7-16,3.7c-15.4,0-24.4-8.9-24.4-24.2c0-13.5,7.2-24.6,21.6-24.6
			c17.3,0,22.2,11.9,22.2,28.2h-32.2c0.5,7.5,5.8,11.8,13.3,11.8c5.9,0,11-2.2,15.5-4.7V93.5z M302.5,68.3c-0.4-5.9-3.1-11-9.9-11
			c-6.8,0-10.2,4.7-10.8,11H302.5z"/>
		<path class="st1" d="M361,93.5c-4.4,2.4-9.5,3.7-16,3.7c-15.4,0-24.4-8.9-24.4-24.2c0-13.5,7.2-24.6,21.6-24.6
			c17.3,0,22.2,11.9,22.2,28.2h-32.2c0.5,7.5,5.8,11.8,13.3,11.8c5.9,0,11-2.2,15.5-4.7V93.5z M352.8,68.3c-0.4-5.9-3.1-11-9.9-11
			c-6.8,0-10.2,4.7-10.8,11H352.8z"/>
		<path class="st1" d="M373.9,49.5h11.5v6.3h0.2c3.8-5.3,9-7.4,15.3-7.4c11,0,15.8,7.8,15.8,18.3v29.4h-12.1V71.2
			c0-5.7-0.1-13.4-7.9-13.4c-8.8,0-10.7,9.5-10.7,15.5v22.8h-12.1V49.5z"/>
	</g>
	<g>
		<path class="st1" d="M236.7,119.1h6.6v3.8h0.1c1.5-2.6,4.2-4.4,8.3-4.4c8.2,0,11.2,6.5,11.2,13.9c0,7.3-3,14-11.3,14
			c-2.9,0-5.4-0.7-7.8-3.7h-0.1v13.9h-6.9V119.1z M243.7,132.4c0,3.8,1.5,8.6,6.1,8.6c4.6,0,5.8-5,5.8-8.6c0-3.6-1.2-8.5-5.7-8.5
			C245.5,123.9,243.7,128.6,243.7,132.4z"/>
		<path class="st1" d="M268.5,120.5c2.7-1.2,6.3-2,9.3-2c8.1,0,11.5,3.4,11.5,11.2v3.4c0,2.7,0.1,4.7,0.1,6.7c0.1,2,0.2,3.9,0.3,5.9
			h-6.1c-0.3-1.4-0.3-3.2-0.3-4h-0.1c-1.6,2.9-5.1,4.6-8.2,4.6c-4.7,0-9.3-2.8-9.3-7.9c0-4,1.9-6.3,4.6-7.6c2.6-1.3,6.1-1.6,8.9-1.6
			h3.8c0-4.3-1.9-5.7-6-5.7c-2.9,0-5.9,1.1-8.2,2.9L268.5,120.5z M276.7,141.3c2.1,0,3.8-0.9,4.9-2.4c1.1-1.5,1.4-3.4,1.4-5.5h-3
			c-3.1,0-7.7,0.5-7.7,4.6C272.3,140.3,274.2,141.3,276.7,141.3z"/>
		<path class="st1" d="M294.5,119.1h6.2v6.1h0.1c0.3-2.5,3.2-6.7,7.3-6.7c0.7,0,1.4,0,2.1,0.2v7c-0.6-0.4-1.9-0.6-3.1-0.6
			c-5.6,0-5.6,7-5.6,10.9v9.8h-6.9V119.1z"/>
		<path class="st1" d="M318.3,124.2h-5.1v-5.1h5.1v-5.3l6.9-2.2v7.6h6.2v5.1h-6.2v12.4c0,2.3,0.6,4.4,3.3,4.4c1.2,0,2.4-0.3,3.2-0.7
			l0.2,5.5c-1.4,0.4-3.1,0.6-5.1,0.6c-5.4,0-8.4-3.4-8.4-8.6V124.2z"/>
		<path class="st1" d="M348.6,138.6h0.1l6.4-19.5h7l-10,26.4c-2.2,5.9-3.8,11.7-11.1,11.7c-1.7,0-3.3-0.3-4.9-0.7l0.5-5.1
			c0.9,0.3,1.9,0.5,3.6,0.5c2.8,0,4.5-1.9,4.5-4.8l-10.2-28h7.7L348.6,138.6z"/>
	</g>
</g>
<g>
	<path class="st1" d="M199.3,177.9c-1-0.4-2.1-0.6-2.9-0.6c-3,0-4.7,2.7-4.7,5.5c0,2.6,1.4,5.5,4.9,5.5c0.9,0,2.1-0.3,2.9-0.8
		l0.2,2.4c-1.1,0.5-2.4,0.6-3.4,0.6c-4.4,0-7.5-3.5-7.5-7.7c0-4.5,3-7.7,7.5-7.7c1.1,0,2.5,0.3,3.3,0.6L199.3,177.9z"/>
	<path class="st1" d="M209.2,175.1c4.5,0,7.4,3.2,7.4,7.7c0,4.2-3,7.7-7.4,7.7c-4.4,0-7.5-3.5-7.5-7.7
		C201.7,178.3,204.7,175.1,209.2,175.1z M209.2,188.3c3.2,0,4.6-2.9,4.6-5.5c0-2.8-1.7-5.5-4.6-5.5c-2.9,0-4.6,2.7-4.6,5.5
		C204.6,185.4,206,188.3,209.2,188.3z"/>
	<path class="st1" d="M220.3,175.4h2.5v2.1h0.1c1-1.7,2.5-2.5,4.7-2.5c1.7,0,3.4,0.9,4.2,2.8c1-2.1,3.2-2.8,4.5-2.8
		c3.7,0,5.1,2.4,5.1,5.6v9.4h-2.7v-8.7c0-1.8-0.4-4.1-2.6-4.1c-2.8,0-3.9,2.7-3.9,5.4v7.4h-2.7v-8.7c0-1.8-0.4-4.1-2.6-4.1
		c-2.8,0-3.9,2.7-3.9,5.4v7.4h-2.7V175.4z"/>
	<path class="st1" d="M245.8,168.5h2.7v9h0.1c1-1.6,2.7-2.4,4.7-2.4c3.8,0,5.5,2.4,5.5,6.3v8.7h-2.7v-7.6c0-3.4-0.7-5.1-3.1-5.2
		c-3.1,0-4.5,2.5-4.5,6v6.8h-2.7V168.5z"/>
	<path class="st1" d="M264.1,176.5c1.4-0.8,3-1.4,4.8-1.4c4.2,0,5.9,2.1,5.9,6.1v6.1c0,1.7,0.1,2.4,0.1,2.9h-2.5v-1.9h-0.1
		c-0.6,0.9-2.1,2.2-4.5,2.2c-3.2,0-5.4-1.4-5.4-4.6c0-3.7,4-4.8,6.8-4.8c1.1,0,1.8,0,2.9,0.1c0-2.5-0.9-3.8-3.6-3.8
		c-1.5,0-3.2,0.6-4.3,1.5L264.1,176.5z M272.1,183.1c-0.6,0-1.1-0.1-1.7-0.1c-1.5,0-5.1,0.2-5.1,2.8c0,1.6,1.5,2.4,2.7,2.4
		c2.7,0,4.1-1.7,4.1-3.9V183.1z"/>
	<path class="st1" d="M285.9,175.1c4.5,0,7.4,3.2,7.4,7.7c0,4.2-3,7.7-7.4,7.7c-4.4,0-7.5-3.5-7.5-7.7
		C278.4,178.3,281.4,175.1,285.9,175.1z M285.9,188.3c3.2,0,4.6-2.9,4.6-5.5c0-2.8-1.7-5.5-4.6-5.5c-2.9,0-4.6,2.7-4.6,5.5
		C281.3,185.4,282.7,188.3,285.9,188.3z"/>
	<path class="st1" d="M297,175.4h2.6v2.3h0.1c0.8-1.7,2.8-2.7,4.8-2.7c3.8,0,5.5,2.4,5.5,6.3v8.7h-2.7v-7.6c0-3.4-0.7-5.1-3.1-5.2
		c-3.1,0-4.5,2.5-4.5,6v6.8H297V175.4z"/>
	<path class="st1" d="M322.3,177.6h-3.9v8c0,1.7,1,2.6,2.3,2.6c0.8,0,1.4-0.3,1.8-0.5v2.3c-0.6,0.2-1.4,0.4-2.3,0.4
		c-2.8,0-4.5-1.3-4.5-4.3v-8.6h-3.3v-2.2h3.3V172l2.7-0.9v4.3h3.9V177.6z"/>
	<path class="st1" d="M326.4,176.5c1.4-0.8,3-1.4,4.8-1.4c4.2,0,5.9,2.1,5.9,6.1v6.1c0,1.7,0.1,2.4,0.1,2.9h-2.5v-1.9h-0.1
		c-0.6,0.9-2.1,2.2-4.5,2.2c-3.2,0-5.4-1.4-5.4-4.6c0-3.7,4-4.8,6.8-4.8c1.1,0,1.8,0,2.9,0.1c0-2.5-0.9-3.8-3.6-3.8
		c-1.5,0-3.2,0.6-4.3,1.5L326.4,176.5z M334.4,183.1c-0.6,0-1.1-0.1-1.7-0.1c-1.5,0-5.1,0.2-5.1,2.8c0,1.6,1.5,2.4,2.7,2.4
		c2.7,0,4.1-1.7,4.1-3.9V183.1z"/>
	<path class="st1" d="M340.6,187.2c1.1,0.7,2.6,1,3.4,1c1.2,0,2.8-0.5,2.8-2.1c0-2.7-6.4-2.4-6.4-6.6c0-3,2.3-4.5,5.2-4.5
		c1.3,0,2.3,0.3,3.4,0.6l-0.2,2.4c-0.6-0.4-2.2-0.7-2.8-0.7c-1.4,0-2.6,0.6-2.6,1.8c0,3,6.4,2.1,6.4,6.8c0,3.1-2.5,4.6-5.1,4.6
		c-1.4,0-2.8-0.1-4-0.8L340.6,187.2z"/>
	<path class="st1" d="M373.8,189.5c0,4.5-2.3,7-7.6,7c-1.6,0-2.9-0.2-5.3-1l0.3-2.5c2.1,0.9,3.3,1.3,5.3,1.3c2.8,0,4.5-1.9,4.5-5
		v-1.4h-0.1c-1.1,1.5-3,2.3-4.9,2.3c-4.2,0-6.3-3.4-6.3-7.2c0-3.8,2.1-7.8,6.6-7.8c2.6,0,4,0.9,4.8,2.5h0.1v-2.2h2.5V189.5z
		 M371.1,182.9c0-3-1.4-5.7-4.3-5.7c-2.7,0-4.1,3-4.1,5.5c0,2.8,1.6,5.2,4.1,5.2C369.4,187.9,371.1,185.7,371.1,182.9z"/>
	<path class="st1" d="M378.8,168.5h2.7v21.6h-2.7V168.5z"/>
	<path class="st1" d="M387.1,176.5c1.4-0.8,3-1.4,4.8-1.4c4.2,0,5.9,2.1,5.9,6.1v6.1c0,1.7,0.1,2.4,0.1,2.9h-2.5v-1.9h-0.1
		c-0.6,0.9-2.1,2.2-4.5,2.2c-3.2,0-5.4-1.4-5.4-4.6c0-3.7,4-4.8,6.8-4.8c1.1,0,1.8,0,2.9,0.1c0-2.5-0.9-3.8-3.6-3.8
		c-1.5,0-3.2,0.6-4.3,1.5L387.1,176.5z M395.1,183.1c-0.6,0-1.1-0.1-1.7-0.1c-1.5,0-5.1,0.2-5.1,2.8c0,1.6,1.5,2.4,2.7,2.4
		c2.7,0,4.1-1.7,4.1-3.9V183.1z"/>
	<path class="st1" d="M401.3,187.2c1.1,0.7,2.6,1,3.4,1c1.2,0,2.8-0.5,2.8-2.1c0-2.7-6.4-2.4-6.4-6.6c0-3,2.3-4.5,5.2-4.5
		c1.3,0,2.3,0.3,3.4,0.6l-0.2,2.4c-0.6-0.4-2.2-0.7-2.8-0.7c-1.4,0-2.6,0.6-2.6,1.8c0,3,6.4,2.1,6.4,6.8c0,3.1-2.5,4.6-5.1,4.6
		c-1.4,0-2.8-0.1-4-0.8L401.3,187.2z"/>
</g>
</svg>
