<?xml version="1.0" encoding="utf-8"?>
<!-- Generator: Adobe Illustrator 24.0.1, SVG Export Plug-In . SVG Version: 6.00 Build 0)  -->
<svg version="1.1" id="Layer_1" xmlns="http://www.w3.org/2000/svg" xmlns:xlink="http://www.w3.org/1999/xlink" x="0px" y="0px"
	 viewBox="0 0 212.6 326" style="enable-background:new 0 0 212.6 326;" xml:space="preserve">
<style type="text/css">
	.st0{display:none;fill:#FFFFFF;}
	.st1{fill:#FFFFFF;}
	.st2{fill:#2FB56A;}
</style>
<rect x="0" y="0" width="212.6" height="326"/>
<g>
	<g>
		<path class="st1" d="M58.5,212.1v28.1c0,8.5-3.4,16.5-16.5,16.5c-3.2,0-6.9-0.5-10.8-2.1l0.7-6.9c2.5,1.3,6.5,2.7,9.1,2.7
			c9,0,9.4-6.7,9.4-12.1h-0.1c-1.5,2.7-5.1,5-9.7,5c-9.2,0-12.7-7.4-12.7-15.7c0-7.5,3.9-16.2,13.2-16.2c4.1,0,7.3,1.4,9.6,5h0.1
			v-4.2H58.5z M50.4,227.4c0-5.3-2.1-9.7-6.8-9.7c-5.5,0-7.3,5.1-7.3,9.9c0,4.2,2.2,9.4,6.9,9.4C48.4,237,50.4,232.6,50.4,227.4z"/>
		<path class="st1" d="M65.7,212.1h7.2v7.1H73c0.4-2.9,3.7-7.8,8.5-7.8c0.8,0,1.6,0,2.5,0.2v8.2c-0.7-0.4-2.2-0.7-3.6-0.7
			c-6.6,0-6.6,8.2-6.6,12.7v11.4h-8.1V212.1z"/>
		<path class="st1" d="M114.3,241.5c-3,1.6-6.4,2.5-10.7,2.5c-10.3,0-16.3-5.9-16.3-16.1c0-9,4.8-16.5,14.5-16.5
			c11.6,0,14.8,7.9,14.8,18.8H95.1c0.4,5,3.9,7.9,8.9,7.9c3.9,0,7.3-1.5,10.3-3.1V241.5z M108.9,224.6c-0.2-3.9-2.1-7.3-6.6-7.3
			c-4.5,0-6.8,3.1-7.2,7.3H108.9z"/>
		<path class="st1" d="M147.9,241.5c-3,1.6-6.4,2.5-10.7,2.5c-10.3,0-16.3-5.9-16.3-16.1c0-9,4.8-16.5,14.5-16.5
			c11.6,0,14.8,7.9,14.8,18.8h-21.5c0.4,5,3.9,7.9,8.9,7.9c3.9,0,7.3-1.5,10.3-3.1V241.5z M142.5,224.6c-0.2-3.9-2.1-7.3-6.6-7.3
			c-4.5,0-6.8,3.1-7.2,7.3H142.5z"/>
		<path class="st1" d="M156.6,212.1h7.7v4.2h0.1c2.5-3.6,6-5,10.2-5c7.4,0,10.6,5.2,10.6,12.2v19.7h-8.1v-16.6c0-3.8-0.1-9-5.3-9
			c-5.9,0-7.1,6.4-7.1,10.3v15.2h-8.1V212.1z"/>
	</g>
	<g>
		<path class="st1" d="M65,258.6h4.4v2.5h0.1c1-1.7,2.8-2.9,5.5-2.9c5.5,0,7.5,4.4,7.5,9.3c0,4.9-2,9.4-7.6,9.4
			c-2,0-3.6-0.5-5.2-2.5h-0.1v9.3H65V258.6z M69.6,267.4c0,2.5,1,5.8,4.1,5.8c3,0,3.9-3.3,3.9-5.8c0-2.4-0.8-5.7-3.8-5.7
			C70.8,261.8,69.6,264.9,69.6,267.4z"/>
		<path class="st1" d="M86.2,259.5c1.8-0.8,4.2-1.3,6.2-1.3c5.4,0,7.7,2.2,7.7,7.5v2.3c0,1.8,0,3.1,0.1,4.5c0,1.3,0.1,2.6,0.2,4
			h-4.1c-0.2-0.9-0.2-2.1-0.2-2.7H96c-1.1,2-3.4,3.1-5.5,3.1c-3.1,0-6.2-1.9-6.2-5.3c0-2.7,1.3-4.2,3-5.1c1.8-0.9,4-1,6-1h2.6
			c0-2.9-1.3-3.8-4-3.8c-2,0-3.9,0.8-5.5,1.9L86.2,259.5z M91.6,273.4c1.4,0,2.5-0.6,3.2-1.6c0.8-1,1-2.3,1-3.7h-2
			c-2.1,0-5.1,0.3-5.1,3.1C88.7,272.8,90,273.4,91.6,273.4z"/>
		<path class="st1" d="M103.6,258.6h4.1v4h0.1c0.2-1.7,2.1-4.5,4.9-4.5c0.4,0,0.9,0,1.4,0.1v4.7c-0.4-0.2-1.2-0.4-2.1-0.4
			c-3.8,0-3.8,4.7-3.8,7.3v6.5h-4.6V258.6z"/>
		<path class="st1" d="M119.5,262h-3.4v-3.4h3.4V255l4.6-1.5v5h4.1v3.4h-4.1v8.3c0,1.5,0.4,2.9,2.2,2.9c0.8,0,1.6-0.2,2.1-0.5
			l0.1,3.7c-1,0.3-2,0.4-3.4,0.4c-3.6,0-5.6-2.2-5.6-5.8V262z"/>
		<path class="st1" d="M139.7,271.6L139.7,271.6l4.4-13h4.7l-6.7,17.7c-1.5,3.9-2.6,7.8-7.4,7.8c-1.1,0-2.2-0.2-3.3-0.5l0.3-3.4
			c0.6,0.2,1.2,0.3,2.4,0.3c1.9,0,3-1.3,3-3.2l-6.8-18.7h5.1L139.7,271.6z"/>
	</g>
</g>
<g>
	<path class="st1" d="M40,297.9c-0.7-0.3-1.4-0.4-2-0.4c-2,0-3.1,1.8-3.1,3.7c0,1.7,0.9,3.7,3.3,3.7c0.6,0,1.4-0.2,1.9-0.6l0.1,1.6
		c-0.8,0.3-1.6,0.4-2.3,0.4c-3,0-5-2.3-5-5.1c0-3,2-5.1,5-5.1c0.7,0,1.7,0.2,2.2,0.4L40,297.9z"/>
	<path class="st1" d="M46.6,296c3,0,5,2.1,5,5.1c0,2.8-2,5.1-5,5.1c-3,0-5-2.3-5-5.1C41.6,298.1,43.6,296,46.6,296z M46.6,304.8
		c2.1,0,3.1-1.9,3.1-3.7c0-1.9-1.1-3.7-3.1-3.7c-1.9,0-3.1,1.8-3.1,3.7C43.5,302.8,44.5,304.8,46.6,304.8z"/>
	<path class="st1" d="M54,296.2h1.7v1.4h0c0.7-1.1,1.7-1.7,3.1-1.7c1.1,0,2.3,0.6,2.8,1.9c0.7-1.4,2.2-1.9,3-1.9
		c2.5,0,3.4,1.6,3.4,3.7v6.3h-1.8v-5.8c0-1.2-0.3-2.7-1.7-2.7c-1.8,0-2.6,1.8-2.6,3.6v4.9h-1.8v-5.8c0-1.2-0.3-2.7-1.7-2.7
		c-1.8,0-2.6,1.8-2.6,3.6v4.9H54V296.2z"/>
	<path class="st1" d="M71.1,291.6h1.8v6h0c0.7-1,1.8-1.6,3.1-1.6c2.5,0,3.7,1.6,3.7,4.2v5.8h-1.8v-5.1c0-2.3-0.5-3.4-2.1-3.5
		c-2.1,0-3,1.7-3,4v4.5h-1.8V291.6z"/>
	<path class="st1" d="M83.3,296.9c0.9-0.5,2-0.9,3.2-0.9c2.8,0,3.9,1.4,3.9,4v4.1c0,1.1,0,1.6,0.1,1.9h-1.7v-1.3h0
		c-0.4,0.6-1.4,1.5-3,1.5c-2.1,0-3.6-0.9-3.6-3.1c0-2.5,2.7-3.2,4.5-3.2c0.7,0,1.2,0,1.9,0c0-1.7-0.6-2.6-2.4-2.6
		c-1,0-2.1,0.4-2.8,1L83.3,296.9z M88.6,301.3c-0.4,0-0.8,0-1.2,0c-1,0-3.4,0.2-3.4,1.9c0,1,1,1.6,1.8,1.6c1.8,0,2.7-1.1,2.7-2.6
		V301.3z"/>
	<path class="st1" d="M97.8,296c3,0,5,2.1,5,5.1c0,2.8-2,5.1-5,5.1c-3,0-5-2.3-5-5.1C92.8,298.1,94.8,296,97.8,296z M97.8,304.8
		c2.1,0,3.1-1.9,3.1-3.7c0-1.9-1.1-3.7-3.1-3.7c-1.9,0-3.1,1.8-3.1,3.7C94.7,302.8,95.7,304.8,97.8,304.8z"/>
	<path class="st1" d="M105.2,296.2h1.7v1.6h0c0.5-1.1,1.8-1.8,3.2-1.8c2.5,0,3.7,1.6,3.7,4.2v5.8h-1.8v-5.1c0-2.3-0.5-3.4-2.1-3.5
		c-2.1,0-3,1.7-3,4v4.5h-1.8V296.2z"/>
	<path class="st1" d="M122.1,297.7h-2.6v5.4c0,1.1,0.7,1.7,1.5,1.7c0.6,0,1-0.2,1.2-0.3v1.5c-0.4,0.1-1,0.3-1.5,0.3
		c-1.9,0-3-0.9-3-2.8v-5.7h-2.2v-1.5h2.2v-2.3l1.8-0.6v2.8h2.6V297.7z"/>
	<path class="st1" d="M124.9,296.9c0.9-0.5,2-0.9,3.2-0.9c2.8,0,3.9,1.4,3.9,4v4.1c0,1.1,0,1.6,0.1,1.9h-1.7v-1.3h0
		c-0.4,0.6-1.4,1.5-3,1.5c-2.1,0-3.6-0.9-3.6-3.1c0-2.5,2.7-3.2,4.5-3.2c0.7,0,1.2,0,1.9,0c0-1.7-0.6-2.6-2.4-2.6
		c-1,0-2.1,0.4-2.8,1L124.9,296.9z M130.2,301.3c-0.4,0-0.8,0-1.2,0c-1,0-3.4,0.2-3.4,1.9c0,1,1,1.6,1.8,1.6c1.8,0,2.7-1.1,2.7-2.6
		V301.3z"/>
	<path class="st1" d="M134.3,304.1c0.7,0.5,1.7,0.7,2.2,0.7c0.8,0,1.8-0.3,1.8-1.4c0-1.8-4.2-1.6-4.2-4.4c0-2,1.5-3,3.5-3
		c0.8,0,1.5,0.2,2.2,0.4l-0.2,1.6c-0.4-0.2-1.5-0.5-1.9-0.5c-0.9,0-1.7,0.4-1.7,1.2c0,2,4.2,1.4,4.2,4.5c0,2.1-1.7,3.1-3.4,3.1
		c-0.9,0-1.9-0.1-2.7-0.5L134.3,304.1z"/>
	<path class="st1" d="M156.5,305.6c0,3-1.5,4.7-5,4.7c-1,0-1.9-0.1-3.5-0.7l0.2-1.7c1.4,0.6,2.2,0.9,3.5,0.9c1.9,0,3-1.3,3-3.4v-1h0
		c-0.8,1-2,1.5-3.3,1.5c-2.8,0-4.2-2.3-4.2-4.8c0-2.5,1.4-5.2,4.4-5.2c1.7,0,2.7,0.6,3.2,1.7h0v-1.5h1.7V305.6z M154.7,301.2
		c0-2-0.9-3.8-2.9-3.8c-1.8,0-2.7,2-2.7,3.6c0,1.8,1,3.5,2.7,3.5C153.6,304.5,154.7,303,154.7,301.2z"/>
	<path class="st1" d="M159.8,291.6h1.8V306h-1.8V291.6z"/>
	<path class="st1" d="M165.4,296.9c0.9-0.5,2-0.9,3.2-0.9c2.8,0,3.9,1.4,3.9,4v4.1c0,1.1,0,1.6,0.1,1.9H171v-1.3h0
		c-0.4,0.6-1.4,1.5-3,1.5c-2.1,0-3.6-0.9-3.6-3.1c0-2.5,2.7-3.2,4.5-3.2c0.7,0,1.2,0,1.9,0c0-1.7-0.6-2.6-2.4-2.6
		c-1,0-2.1,0.4-2.8,1L165.4,296.9z M170.8,301.3c-0.4,0-0.8,0-1.2,0c-1,0-3.4,0.2-3.4,1.9c0,1,1,1.6,1.8,1.6c1.8,0,2.7-1.1,2.7-2.6
		V301.3z"/>
	<path class="st1" d="M174.9,304.1c0.7,0.5,1.7,0.7,2.2,0.7c0.8,0,1.8-0.3,1.8-1.4c0-1.8-4.2-1.6-4.2-4.4c0-2,1.5-3,3.5-3
		c0.8,0,1.5,0.2,2.2,0.4l-0.2,1.6c-0.4-0.2-1.5-0.5-1.9-0.5c-0.9,0-1.7,0.4-1.7,1.2c0,2,4.2,1.4,4.2,4.5c0,2.1-1.7,3.1-3.4,3.1
		c-0.9,0-1.9-0.1-2.7-0.5L174.9,304.1z"/>
</g>
<g>
	<path class="st1" d="M132.2,98.3c23.6-10.1,35.5-35.5,39-59.7c3,1.2,0.2,35.9-18.9,59.7c-3.4,4.2-6.9,8.6-11.3,11.7
		c-3.4,2.4-9.4,5.3-13.7,3.4c-3-1.4-4-5.5-2.8-8.3C126,101.9,129.1,99.6,132.2,98.3z"/>
	<path class="st1" d="M120.7,81.9c14.6-8.8,25.8-23.3,31.2-39.4c2.6-7.6,4.4-15.8,4.1-23.9c0-0.9-0.4-6.4-1.1-8.8
		c2.1-0.3,2.9,4.2,3.1,5.6c3.6,15.4,1.1,33-4.2,47.9c-1.5,4.3-3.5,8.5-5.8,12.5c-3.6,6.1-7.8,11.8-13.1,16.6
		c-4.3,3.9-12,9.7-18.3,7.4c-3.4-1.3-5-4.9-4.3-8.3C113.2,86.8,117,84.1,120.7,81.9z"/>
	<path class="st1" d="M102,152.7c0.4-0.3,0.8-0.5,1.2-0.6c5.9-2.1,8.4,4.6,12.7,6.6c15.5,7.1,23-8.2,25.7-7.1
		c-4.6,14.5-22.8,23.9-37.9,15.4c-2.3-1.3-4.5-3.5-5.1-6.5C98.2,157.6,99.7,154.3,102,152.7z"/>
	<path class="st1" d="M83.1,162.7c0.9-2.5,2.6-4.8,5.2-5.5c2.4-0.6,6.1,0.2,7.4,2.6c4.2,7.4-10,22.1,1.7,23.7
		c4.1,0.6,8.7-2.4,11.9-5.3c0,4.1-4.6,7.3-8.9,8.9c-4.5,1.5-10.3,1.1-14.2-2C79.9,179.6,80.4,170.2,83.1,162.7z"/>
	<path class="st1" d="M77.1,154.8c1.7,0.5,2.9,1.9,3.6,3.5c2.1,5.1-4.2,15.8-7.1,20.3c-9.5,14.7-3.3,21.4-5.4,21.7
		c-5-5.8-5.1-19.5-3.3-29.3c1-5.7,2.9-15,9.8-16.4C75.4,154.5,76.3,154.5,77.1,154.8z"/>
	<path class="st1" d="M60.1,148c3.7-5.2,9-6.2,11.9-3.2c1.7,1.8,2.5,4.2,0.5,7c-3.7,5.2-7.9,4.6-11.8,15.1
		c-3.4,10.2,0.5,19.7-1.8,21.3c-4.4-8.3-4.7-21.6-4.7-22.2C54.2,159.4,56.1,153.6,60.1,148z"/>
	<path class="st1" d="M58.9,132.6c2.4-2,4.3-2.1,5.5-1.8c3,0.7,4.2,4.2,2.8,6.8c-1.8,3.3-5.6,5.2-8.2,7.9c-1.5,1.6-3,3.5-4.1,5.4
		c-0.9,1.5-1.4,3.2-1.7,4.9c-0.1,1-0.1,2.1-0.4,3.1c-0.1,0.2-0.2,0.5-0.4,0.7c0,0-0.6,0.4-0.6,0.3C50.6,150.3,51.3,139.1,58.9,132.6
		z"/>
	<path class="st1" d="M68.4,110.9c2.8-1.1,5.9,0.5,6.2,3.6c0.4,4.2-2.7,8.7-6.5,10.4c-1.3,0.6-2.7,0.9-4,1.2
		c-1.8,0.3-3.8,0.6-5.3,1.7c-2.4,1.8-4.2,7.3-5.3,7.1c-0.4-0.1,1.1-5.8,1.2-6.3c0.7-2,1.6-4,2.6-5.9c2.2-3.7,4.8-7.2,8.1-10
		C66.4,112,67.4,111.3,68.4,110.9z"/>
	<path class="st1" d="M77.4,88.5C84,78.9,87.7,75,94.9,68.7c1-0.9,1.1,0.3,0.9,0.9c-14.5,15.9-7.6,23-10.8,31
		c-0.9,2.8-3.7,6.6-7.1,7.1c-3.1,0.5-5.9-2.5-5.8-5.5C72.3,97.6,75,92.1,77.4,88.5z"/>
	<path class="st1" d="M92.6,97c-0.8-0.2-1.6-0.6-2.2-1.2c-1.7-1.8-1.6-4.7-0.6-6.8c1.5-3.5,4.1-6,6.6-8.8c3.9-4.2,7.6-7.3,11.8-11.2
		c3.4-3.2,7.3-7.2,10.4-10.8c2.4-2.8,6-8.2,8.1-11.3c3.7-5.6,5.1-12.7,5.5-20.4c0.2-3.9-0.2-6.5-0.6-9.9c-0.1-0.6-0.1-1.7,0.5-1.9
		c4.6,8,4.8,29.6-3.5,45.7c-6,11.8-13.7,23.2-22.5,31.5c-2.6,2.1-5.5,4.7-9,5.3C95.9,97.4,94.1,97.4,92.6,97z"/>
	<path class="st1" d="M125.8,120.2c1.5-0.8,3.1-1.4,4.7-1.8c2-0.5,4.1-0.7,6.1-1.2c3.7-1,7.2-2.6,10.5-4.6
		c7.3-4.6,13.6-10.8,18.4-17.9c3.1-4.6,5.4-9.7,7.1-15.1c0.7-2.4,1.4-3.9,2.8-4c-3,19.5-13.1,38.1-28.4,50.9
		c-4.5,3.8-10,7.3-16.1,7.9c-3.6,0.3-8-0.3-9.3-4.3c-0.8-2.6-0.3-5.7,1.5-7.7C123.8,121.5,124.8,120.8,125.8,120.2z"/>
	<path class="st1" d="M113.9,141.5c7.4-5.7,12.4,1.1,24.3-3.6c22.7-8.9,27.3-25.5,30.5-24.1c-8.3,17.2-21.2,33.4-39.1,40.3
		c-5.7,2.2-13.7,3.4-17.3-1.9C110,148.6,110.1,144.3,113.9,141.5z"/>
	<path class="st1" d="M76.2,147.3c4.1,5,10.2,5.8,15.6,4.4c5.1-1.3,12-5.2,17.6-12.2c8.8-11.1,11.5-25.1,5-33.4
		c-4.1-5.2-10-5.7-15.5-4.4c-5.4,1.3-11.6,4.6-17.6,12c-7.2,9-9.5,18-8.4,25.9C73.3,142.4,74.2,145,76.2,147.3z"/>
</g>
</svg>
